<?xml version="1.0" encoding="UTF-8" standalone="no"?>
<svg
   width="62"
   height="62"
   viewBox="0 0 62 62"
   fill="none"
   version="1.1"
   id="svg7"
   xmlns="http://www.w3.org/2000/svg"
   xmlns:svg="http://www.w3.org/2000/svg">
  <g
     clip-path="url(#clip0_2_23)"
     id="g7"
     transform="translate(6)">
    <path
       d="m 17,2 h 23 c 4.4183,0 8,3.58172 8,8 v 30 c 0,4.4183 -3.5817,8 -8,8 H 9 V 10 C 9,5.58172 12.5817,2 17,2 Z"
       stroke="#a855f7"
       stroke-width="4"
       id="path1" />
    <mask
       id="path-2-inside-1_2_23"
       fill="#ffffff">
      <path
         d="M 0,15 C 0,6.71573 6.71573,0 15,0 h 25 c 5.5228,0 10,4.47715 10,10 v 30 c 0,5.5228 -4.4772,10 -10,10 H 3 C 1.34315,50 0,48.6569 0,47 Z"
         id="path2" />
    </mask>
    <path
       d="M 0,15 C 0,6.71573 6.71573,0 15,0 h 25 c 5.5228,0 10,4.47715 10,10 v 30 c 0,5.5228 -4.4772,10 -10,10 H 3 C 1.34315,50 0,48.6569 0,47 Z"
       stroke="#a855f7"
       stroke-width="8"
       mask="url(#path-2-inside-1_2_23)"
       id="path3" />
    <mask
       id="path-3-inside-2_2_23"
       fill="#ffffff">
      <path
         d="M 0,15 C 0,6.71573 6.71573,0 15,0 H 48 V 57 H 10 C 4.47715,57 0,52.5228 0,47 Z"
         id="path4" />
    </mask>
    <path
       d="M 0,0 H 48 Z M 48,61 H 10 C 2.26801,61 -4,54.732 -4,47 h 8 c 0,3.3137 2.68629,6 6,6 H 48 Z M 10,61 C 2.26801,61 -4,54.732 -4,47 V 19 C -4,8.50659 4.50659,0 15,0 8.92487,0 4,6.71573 4,15 v 32 c 0,3.3137 2.68629,6 6,6 z M 48,0 v 57 z"
       fill="#a855f7"
       mask="url(#path-3-inside-2_2_23)"
       id="path5" />
    <rect
       x="41"
       y="54"
       width="8"
       height="2"
       rx="1"
       stroke="#a855f7"
       stroke-width="2"
       id="rect5" />
    <path
       d="M 13,58.3333 V 49 h 6 v 9.1716 l -0.7738,-0.7738 c -1.1514,-1.1514 -3.0111,-1.1741 -4.1903,-0.0511 z"
       fill="#a855f7"
       stroke="#a855f7"
       stroke-width="4"
       id="path6" />
    <path
       d="M 26.0398,40 H 17 V 10 h 9.4403 c 2.8416,0 5.2732,0.6006 7.2948,1.8018 2.0215,1.1914 3.5711,2.9052 4.6486,5.1416 1.0775,2.2265 1.6163,4.8925 1.6163,7.998 0,3.125 -0.5435,5.8154 -1.6306,8.0713 -1.0871,2.2461 -2.67,3.9746 -4.7488,5.1855 C 31.5419,39.3994 29.0149,40 26.0398,40 Z m -5.4925,-3.2227 h 5.2636 c 2.4221,0 4.4294,-0.4785 6.0218,-1.4355 1.5925,-0.957 2.7797,-2.3193 3.5616,-4.0869 0.7819,-1.7676 1.1729,-3.8721 1.1729,-6.3135 0,-2.4219 -0.3862,-4.5068 -1.1586,-6.2549 C 34.6362,16.9287 33.4824,15.5811 31.9471,14.6436 30.4119,13.6963 28.5,13.2227 26.2114,13.2227 h -5.6641 z"
       fill="#a855f7"
       id="path7" />
  </g>
  <defs
     id="defs7">
    <clipPath
       id="clip0_2_23">
      <rect
         width="50"
         height="62"
         fill="#ffffff"
         id="rect7"
         x="0"
         y="0" />
    </clipPath>
  </defs>
</svg>
